<svg width="800" height="800" viewBox="0 0 800 800" fill="none" xmlns="http://www.w3.org/2000/svg">
<rect width="800" height="800" fill="black"/>
<g clip-path="url(#clip0_482_2072)">
<path fill-rule="evenodd" clip-rule="evenodd" d="M215.167 448.851L256.935 490.626L490.884 256.754L400.296 166.197L215.187 351.346C208.776 357.744 203.689 365.342 200.218 373.707C196.747 382.072 194.959 391.039 194.958 400.095C194.956 409.15 196.74 418.117 200.207 426.484C203.675 434.851 208.759 442.452 215.167 448.851Z" fill="#D2D0DD"/>
<path fill-rule="evenodd" clip-rule="evenodd" d="M587.069 447.302C586.547 447.858 586.015 448.407 585.474 448.95L544.33 490.081L544.061 490.35L400.363 634L358.576 592.245C352.169 585.847 347.086 578.249 343.619 569.884C340.151 561.521 338.366 552.556 338.366 543.502C338.366 534.448 340.151 525.483 343.619 517.12C347.086 508.758 352.169 501.159 358.576 494.759L453.525 399.891L358.852 305.3C352.451 298.901 347.373 291.305 343.909 282.945C340.445 274.585 338.662 265.625 338.662 256.576C338.662 247.527 340.445 238.567 343.909 230.207C347.373 221.847 352.451 214.251 358.852 207.853L400.64 166L585.749 351.149C598.682 364.059 605.954 381.576 605.97 399.846C605.984 417.523 599.202 434.506 587.069 447.302Z" fill="white"/>
</g>
<defs>
<clipPath id="clip0_482_2072">
<rect width="413" height="468" fill="white" transform="translate(193 166)"/>
</clipPath>
</defs>
</svg>
