<svg width="212" height="58" viewBox="0 0 212 58" fill="none" xmlns="http://www.w3.org/2000/svg">
<g clip-path="url(#clip0_537_104684)">
<path fill-rule="evenodd" clip-rule="evenodd" d="M2.94568 34.909L8.00027 39.98L36.3118 11.5898L25.3493 0.596924L2.94805 23.0726C2.17222 23.8492 1.55667 24.7716 1.1366 25.787C0.716546 26.8024 0.500219 27.891 0.5 28.9903C0.499778 30.0896 0.715665 31.1781 1.13532 32.1938C1.55497 33.2094 2.17015 34.1319 2.94568 34.909Z" fill="#061499"/>
<path fill-rule="evenodd" clip-rule="evenodd" d="M47.953 34.7207C47.8898 34.7883 47.8254 34.8549 47.7599 34.9208L42.7809 39.9138L42.7483 39.9465L25.3586 57.3843L20.3016 52.3157C19.5263 51.5389 18.9112 50.6166 18.4916 49.6013C18.0719 48.5861 17.856 47.4979 17.856 46.3987C17.856 45.2995 18.0719 44.2113 18.4916 43.1961C18.9112 42.1808 19.5263 41.2585 20.3016 40.4817L31.7921 28.9654L20.335 17.4827C19.5604 16.706 18.946 15.7839 18.5267 14.769C18.1075 13.7542 17.8917 12.6665 17.8917 11.568C17.8917 10.4695 18.1075 9.38185 18.5267 8.36699C18.946 7.35214 19.5604 6.43006 20.335 5.65336L25.3921 0.572754L47.7931 23.0484C49.3582 24.6156 50.2385 26.7421 50.2401 28.9599C50.2418 31.1058 49.421 33.1673 47.953 34.7207Z" fill="#2C40F7"/>
<path d="M101.356 45.453H110.102V13.8923H101.356V45.453Z" fill="#121118"/>
<path d="M120.546 4.56201V13.8925H114.487V21.1565H120.546V33.9936C120.546 41.3202 125.232 45.4532 132.478 45.4532H137.663V38.1266H133.665C130.854 38.1266 129.23 36.6863 129.23 33.6179V21.1565H137.663V13.8925H129.23V4.56201H120.546Z" fill="#121118"/>
<path d="M162.53 21.1563V13.8923H158.97C155.159 13.8923 152.785 15.2073 151.098 19.1524V13.8923H142.353V45.453H151.098V30.111C151.098 24.7256 153.035 21.1563 157.345 21.1563H162.53Z" fill="#121118"/>
<path d="M166.571 45.453H175.317V13.8923H166.571V45.453Z" fill="#121118"/>
<path d="M196.319 45.954C204.503 45.954 210.999 40.6939 211.936 33.6804H203.066C202.441 36.4983 199.88 38.4395 196.694 38.4395C191.946 38.4395 189.135 34.8076 189.135 29.6727C189.135 24.5378 191.884 20.8432 196.569 20.8432C199.755 20.8432 202.441 22.9097 202.941 25.7276H211.687C211.124 18.401 204.565 13.3914 196.319 13.3914C186.574 13.3914 180.077 20.4675 180.077 29.6727C180.077 38.8779 186.574 45.954 196.319 45.954Z" fill="#121118"/>
<path d="M170.945 0.178467C173.481 0.178467 175.568 2.23912 175.568 4.78106C175.568 7.32302 173.481 9.38367 170.945 9.38367C168.409 9.38367 166.322 7.32302 166.322 4.78106C166.322 2.23912 168.409 0.178467 170.945 0.178467Z" fill="#121118"/>
<path d="M105.729 0.178467C108.265 0.178467 110.352 2.23912 110.352 4.78106C110.352 7.32302 108.265 9.38367 105.729 9.38367C103.194 9.38367 101.106 7.32302 101.106 4.78106C101.106 2.23912 103.194 0.178467 105.729 0.178467Z" fill="#121118"/>
<path d="M66.2651 45.4531H75.011V28.1699C75.011 24.0995 77.6972 21.1564 81.5079 21.1564C85.1311 21.1564 87.5675 23.9117 87.5675 27.7315V45.4531H96.3133V25.7903C96.3133 18.5263 91.1064 13.0583 81.246 13.0583C71.3857 13.0583 66.515 19.4723 66.515 25.7903L66.2651 45.4531Z" fill="#121118"/>
</g>
<defs>
<clipPath id="clip0_537_104684">
<rect width="212" height="57.6242" fill="#121118"/>
</clipPath>
</defs>
</svg>
